<svg width="181.302582" height="181.986694" viewBox="0 0 181.303 181.987" fill="none" xmlns="http://www.w3.org/2000/svg" xmlns:xlink="http://www.w3.org/1999/xlink">
	<desc>
			Created with Pixso.
	</desc>
	<defs/>
	<ellipse id="circle" cx="90.579224" cy="90.993408" rx="90.579247" ry="90.993355" fill="#FF5A00" fill-opacity="1.000000"/>
	<path id="path" d="M117.14 86.49C113.62 86.49 110.42 86.17 106.9 85.52C101.46 84.56 96.98 80.38 96.34 74.91C93.14 54.33 99.86 33.43 114.26 18.97C128.66 4.5 149.47 -2.26 169.95 0.96C175.39 1.92 179.87 6.1 180.51 11.57C183.71 32.15 176.99 53.05 162.59 67.52C150.43 79.73 134.1 86.49 117.14 86.49ZM159.71 8.68C144.99 8.68 130.26 14.46 119.7 25.07C106.9 37.94 101.14 56.26 104.02 73.95C104.34 75.88 105.94 77.81 108.18 78.13C126.1 81.02 144.35 74.91 156.83 62.37C169.63 49.51 175.39 31.18 172.51 13.5C172.19 11.57 170.59 9.64 168.35 9.32C165.79 9 162.91 8.68 159.71 8.68Z" fill="#017EBE" fill-opacity="1.000000" fill-rule="nonzero"/>
</svg>
